<?xml version="1.0" encoding="utf-8"?>
<!-- Generator: Adobe Illustrator 15.1.0, SVG Export Plug-In . SVG Version: 6.00 Build 0)  -->
<!DOCTYPE svg PUBLIC "-//W3C//DTD SVG 1.1//EN" "http://www.w3.org/Graphics/SVG/1.1/DTD/svg11.dtd">
<svg version="1.1" id="Capa_1" xmlns="http://www.w3.org/2000/svg" xmlns:xlink="http://www.w3.org/1999/xlink" x="0px" y="0px"
	 width="549px" height="550px" viewBox="0 0 549 550" enable-background="new 0 0 549 550" xml:space="preserve">
<path d="M-594.18,363.912l-40.15,0.59l0.984-5.313l12.202-6.887l6.099-123.785l-12.986-5.31l1.182-4.726l32.864-0.395l40.343,96.628
	l41.524-96.429l34.243-0.199l-1.181,5.12l-12.204,5.31l4.724,123.785l14.369,6.887l-0.988,4.723l-46.641,0.59l0.984-5.313
	l14.563-6.887l-5.509-108.436l-40.737,98.794l-10.037,0.194l-43.095-97.215l-3.742,106.662l14.171,6.887L-594.18,363.912z"/>
<polygon points="-473.3,161.472 -361.18,402.116 -349.385,396.568 -460.654,157.242 "/>
<path d="M-320.915,225.558c-2.116-2.674-4.659-4.788-7.558-6.284c-2.934-1.514-6.197-2.28-9.706-2.28
	c-4.478,0-10.634,0.072-16.149,0.216c-5.473,0.145-9.498,0.244-12.076,0.301l-1.587,0.034l-0.903,4.367l6.117,2.262l0.574,53.479
	l-5.929,2.693l-1.295,4.682l31.236,0.187h0.012c3.891,0,7.392-0.899,10.404-2.677c2.974-1.753,5.491-4.204,7.483-7.283
	c1.965-3.041,3.463-7.299,4.45-12.658c0.964-5.225,1.452-10.277,1.452-15.019c0-4.522-0.563-8.689-1.674-12.386
	C-317.188,231.451-318.821,228.211-320.915,225.558z M-326.488,259.845c-0.466,4.44-1.259,8.051-2.359,10.733
	c-1.009,2.463-2.313,5.153-3.875,6.595c-0.414,0.161-1.222,0.378-2.719,0.483c-1.554,0.11-5.593,0.166-8.17,0.166
	c-2.58,0-4.69-0.056-6.274-0.166c-0.731-0.05-1.386-0.096-1.962-0.135l0.322-53.127c1.14-0.135,2.327-0.222,3.55-0.262
	c1.577-0.052,3.706,0.033,6.35,0.253c2.456,0.208,6.452,0.587,8.043,1.128c1.334,0.805,2.553,2.829,3.622,4.801
	c1.198,2.211,2.148,4.823,2.824,7.764c0.686,2.99,1.088,6.252,1.199,9.691C-325.826,251.23-326.012,255.294-326.488,259.845z"/>
<path d="M-270.607,250.979l-1.53,4.192l6.937,2.514l0.446,20.218c-2.095,0.41-5.046,0.618-6.875,0.618
	c-1.966,0-3.809-0.241-5.472-0.716c-3.573-1.017-6.564-2.763-8.891-5.192c-2.357-2.46-4.113-5.517-5.223-9.08
	c-1.143-3.666-1.734-8.479-1.761-12.483c-0.028-4.019,0.497-8.068,1.566-12.038c1.028-3.82,2.569-7.991,4.585-10.946
	c0.703-0.521,1.639-0.977,2.783-1.352c1.37-0.446,2.861-0.781,4.433-0.996c1.612-0.218,3.313-0.343,5.058-0.369
	c1.722-0.026,3.369,0.055,4.887,0.242c1.474,0.186,2.811,0.476,3.973,0.862c0.768,0.255,2.354,0.563,2.77,0.901l2.818,8.645
	l5.564-0.518l0.434-15.232l-1.437-0.424c-8.007-2.354-15.165-3.236-21.3-2.605c-6.226,0.635-10.266,2.522-14.489,5.611
	c-4.224,3.094-7.476,7.256-9.669,12.371c-2.158,5.038-3.254,10.851-3.254,17.278c0,4.521,0.503,8.579,1.493,12.058
	c0.997,3.507,2.372,6.574,4.085,9.113c1.72,2.549,3.734,4.701,5.988,6.398c2.242,1.692,4.754,3.019,7.461,3.942
	c3.145,1.087,6.439,1.716,9.794,1.866c1.018,0.045,0.773,0.069,1.75,0.069c2.157,0,4.245-0.114,6.202-0.337
	c2.834-0.325,5.391-0.792,7.598-1.388c2.199-0.595,3.747-1.063,4.734-1.436l1.261-0.474V257.63l4.842-2.215l1.093-4.643
	L-270.607,250.979z"/>
<path d="M-251.12,89.663c-49.954-49.955-116.373-77.467-187.021-77.467s-137.066,27.512-187.021,77.467
	c-49.955,49.954-77.467,116.373-77.467,187.021s27.512,137.066,77.467,187.021c49.954,49.955,116.373,77.467,187.021,77.467
	s137.066-27.512,187.021-77.467c49.955-49.954,77.467-116.373,77.467-187.021S-201.165,139.617-251.12,89.663z M-438.141,528.171
	c-138.671,0-251.487-112.816-251.487-251.487S-576.812,25.196-438.141,25.196s251.487,112.816,251.487,251.487
	S-299.47,528.171-438.141,528.171z"/>
<g>
	<circle fill-rule="evenodd" clip-rule="evenodd" cx="719.063" cy="275" r="14.303"/>
	<g>
		<path fill-rule="evenodd" clip-rule="evenodd" fill="#FFFFFF" d="M719.161,265.08c0.263,0,0.523,0,0.785,0
			c2.831,0.174,4.72,1.289,6.26,2.752c1.457,1.541,2.568,3.43,2.736,6.259c0,0.257,0,0.515,0,0.771
			c-0.278,3.631-2.006,6.076-4.435,7.596c-1.194,0.748-2.77,1.335-4.594,1.416c-1.992,0.088-3.532-0.455-4.857-1.147
			c-1.657,0.439-3.313,0.88-4.986,1.305c0-0.011,0-0.021,0-0.031c0.465-1.593,0.88-3.229,1.337-4.829
			c-0.749-1.318-1.279-2.845-1.26-4.828c0.021-1.895,0.615-3.502,1.352-4.732c0.748-1.242,1.798-2.287,3.021-3.067
			C715.777,265.74,717.292,265.182,719.161,265.08z M715.275,281.027c0.968,0.591,2.044,1.07,3.413,1.209
			c1.501,0.155,2.892-0.133,3.948-0.598c2.087-0.916,3.694-2.606,4.37-4.891c0.382-1.277,0.439-2.779,0.141-4.073
			c-0.275-1.212-0.855-2.304-1.524-3.113c-0.702-0.854-1.552-1.544-2.577-2.06c-1.036-0.521-2.283-0.906-3.807-0.834
			c-0.841,0.04-1.564,0.202-2.25,0.441c-1.94,0.672-3.371,1.958-4.293,3.631c-0.636,1.159-1.062,2.588-0.941,4.311
			c0.107,1.607,0.692,2.805,1.351,3.899c-0.252,0.954-0.525,1.886-0.771,2.847C713.321,281.545,714.303,281.289,715.275,281.027z"/>
		<path fill-rule="evenodd" clip-rule="evenodd" fill="#FFFFFF" d="M716.203,270.143c0.095-0.008,0.564-0.039,0.724,0.032
			c0.141,0.064,0.27,0.376,0.331,0.519c0.177,0.433,0.328,0.77,0.504,1.195c0.091,0.222,0.221,0.455,0.221,0.629
			c0,0.265-0.203,0.5-0.347,0.676c-0.177,0.215-0.43,0.346-0.443,0.583c-0.01,0.194,0.186,0.401,0.286,0.551
			c0.67,1.001,1.472,1.765,2.641,2.296c0.18,0.08,0.413,0.233,0.599,0.22c0.242-0.018,0.495-0.421,0.628-0.581
			c0.091-0.109,0.168-0.209,0.267-0.347c0.091-0.124,0.172-0.275,0.301-0.298c0.198-0.037,0.474,0.133,0.661,0.22
			c0.396,0.188,0.758,0.362,1.163,0.565c0.176,0.089,0.509,0.191,0.565,0.346c0.108,0.299-0.115,1.047-0.22,1.228
			c-0.179,0.31-0.555,0.562-0.851,0.724c-0.323,0.178-0.755,0.3-1.258,0.299c-0.62-0.002-1.193-0.227-1.713-0.426
			c-1.544-0.586-2.718-1.557-3.714-2.705c-0.635-0.732-1.322-1.557-1.635-2.642c-0.286-1.003-0.063-1.892,0.424-2.5
			C715.562,270.447,715.731,270.188,716.203,270.143z"/>
	</g>
</g>
<g>
	<path fill="#FFFFFF" d="M275,19c34.652,0,68.261,6.783,99.894,20.161c30.558,12.924,58.006,31.428,81.58,54.998
		c23.574,23.569,42.08,51.009,55.006,81.559c13.378,31.62,20.161,65.214,20.161,99.849c0,34.652-6.783,68.26-20.162,99.887
		c-12.925,30.555-31.431,57.998-55.005,81.567c-23.573,23.568-51.021,42.07-81.58,54.992c-31.63,13.375-65.239,20.157-99.894,20.157
		c-34.641,0-68.238-6.781-99.86-20.156c-30.553-12.922-57.995-31.425-81.564-54.993c-23.571-23.569-42.075-51.013-54.999-81.567
		c-13.378-31.628-20.161-65.234-20.161-99.887c0-34.634,6.783-68.229,20.161-99.85c12.924-30.549,31.429-57.99,54.999-81.56
		c23.571-23.57,51.014-42.074,81.565-54.998C206.764,25.783,240.361,19,275,19 M275,5C125.583,5,4.415,126.167,4.415,275.567
		c0,149.474,121.168,270.604,270.585,270.604c149.473,0,270.641-121.13,270.641-270.604C545.641,126.167,424.473,5,275,5L275,5z"/>
</g>
<g>
	<path fill="#FFFFFF" d="M294.216,450.99c-1.524,0-2.262-0.722-2.262-2.199V304.338c0.236-1.477,0.91-2.198,2.262-2.198h47.381
		l7.711-59.553h-55.092c-1.524,0-2.262-0.754-2.262-2.2v-41.932c0-13.945,12.173-20.918,36.436-20.918h23.133V124.58
		c-13.412-1.476-28.111-2.199-44.099-2.199h-3.297c-33.658,0-56.776,15.423-69.479,46.33c-2.937,9.925-4.43,19.851-4.43,29.745
		v41.932c0,1.445-0.738,2.2-2.197,2.2h-48.545v59.553h48.545c1.459,0.156,2.197,0.94,2.197,2.198v144.453
		c0,1.478-0.738,2.199-2.197,2.199H294.216z"/>
</g>
<g>
	<circle fill-rule="evenodd" clip-rule="evenodd" cx="704.759" cy="475.371" r="14.304"/>
	<g>
		<path fill="#FFFFFF" d="M696.068,468.695v13.35h17.378v-13.35H696.068z M704.759,476.785l-7.242-7.242H712L704.759,476.785z
			 M696.917,481.199v-11.057l7.826,7.828l0.014-0.008l0.009,0.012l7.833-7.832v11.057H696.917z"/>
		
			<line fill="#FFFFFF" stroke="#FFFFFF" stroke-width="1.3847" stroke-miterlimit="10" x1="707.513" y1="474.615" x2="713.108" y2="481.75"/>
		
			<line fill="#FFFFFF" stroke="#FFFFFF" stroke-width="1.3847" stroke-miterlimit="10" x1="701.655" y1="474.318" x2="696.641" y2="481.75"/>
	</g>
</g>
<g>
	<path fill-rule="evenodd" clip-rule="evenodd" d="M1024.462,216.608c1.185,0,2.371,0,3.556,0
		c21.347,2.507,33.774,14.808,36.148,36.445c0,0.938,0,1.876,0,2.815c-0.581,8.506-3.079,15.093-6.963,20.296
		c-2.672-2.019-5.694-3.688-8.148-5.926c1.434-3.96,0.889-10.364,0.889-15.704c0-4.413,0.374-8.821,0-12.444
		c-0.631-6.11-5.737-10.656-11.111-11.26c-4.046-0.454-8.572,0-12.593,0c-4.105,0-8.425-0.443-12.592,0
		c-5.101,0.543-7.944,3.767-10.223,7.704c-2.718-1.925-5.533-3.751-8.148-5.778C1001.654,224.022,1010.514,217.771,1024.462,216.608
		z"/>
	<path fill-rule="evenodd" clip-rule="evenodd" d="M1045.647,267.719c-0.912-0.06-1.732-0.791-2.52-1.333
		c-2.229-1.537-4.711-3.396-6.963-5.037c1.271-2.32,2.285-4.803,1.926-8.296c-0.651-6.364-6.547-11.066-13.332-10.371
		c-3.839,0.393-6.018,2.401-8.298,4.889c-3.26-2.073-6.295-4.371-9.48-6.518c1.664-7.293,10.07-6.222,19.259-6.222
		c4.066,0,8.229-0.324,11.705,0c4.345,0.405,7.575,3.754,7.999,7.852C1046.718,250.185,1045.607,259.356,1045.647,267.719z
		 M1038.832,244.756c3.797-0.005,3.463-5.933-0.296-5.482C1034.844,239.718,1035.878,244.76,1038.832,244.756z"/>
	<path fill-rule="evenodd" clip-rule="evenodd" d="M1032.759,258.979c-4.409-2.85-8.524-5.996-12.89-8.89
		c1.452-2.169,4.008-3.651,7.11-3.407C1032.667,247.13,1036.035,253.822,1032.759,258.979z"/>
</g>
<g>
	<path fill-rule="evenodd" clip-rule="evenodd" d="M921.494,348.859c-1.186,0-2.371,0-3.557,0
		c-21.347-2.508-33.773-14.809-36.147-36.445c0-0.938,0-1.877,0-2.814c0.58-8.506,3.078-15.094,6.962-20.297
		c2.673,2.02,5.75,3.395,8.204,5.633c-1.434,3.959-0.944,10.657-0.944,15.997c0,4.413-0.374,8.821,0,12.444
		c0.631,6.11,5.737,10.656,11.111,11.26c4.046,0.455,8.573,0,12.594,0c4.105,0,8.424,0.443,12.592,0
		c5.101-0.543,7.924-3.931,10.202-7.868c2.718,1.925,5.553,3.915,8.169,5.942C944.301,341.443,935.442,347.697,921.494,348.859z"/>
	<path fill-rule="evenodd" clip-rule="evenodd" d="M900.437,297.584c0.912,0.06,1.604,0.954,2.391,1.496
		c2.229,1.537,4.839,3.381,7.09,5.021c-1.271,2.32-2.411,4.819-2.053,8.313c0.652,6.363,6.547,11.065,13.333,10.37
		c3.838-0.394,6.145-2.417,8.424-4.904c3.26,2.073,6.296,4.223,9.482,6.37c-1.664,7.293-10.199,6.387-19.387,6.387
		c-4.067,0-8.229,0.323-11.705,0c-4.345-0.405-7.576-3.755-8-7.853C899.237,315.281,900.477,305.946,900.437,297.584z"/>
	<path fill-rule="evenodd" clip-rule="evenodd" d="M913.325,306.62c4.409,2.851,8.523,5.996,12.89,8.89
		c-1.453,2.169-4.137,3.52-7.239,3.274C913.288,318.337,910.048,311.777,913.325,306.62z"/>
</g>
<g>
	<path fill-rule="evenodd" clip-rule="evenodd" d="M1473.256,184.511c-22.633,2.72-16.295,33.626,1.813,33.603
		C1498.344,218.081,1496.296,181.745,1473.256,184.511z"/>
	<path fill-rule="evenodd" clip-rule="evenodd" d="M1388.805,205.399c-23.531,2.409-36.886,14.72-50.863,29.966
		c-7.794,14.223-14.779,29.542-12.583,50.95c4,39.012,40.131,67.828,81.728,63.565c23.525-2.406,37.665-14.81,51.636-30.062
		c7.794-14.223,14.008-29.439,11.805-50.852C1466.534,229.957,1430.396,201.137,1388.805,205.399z M1437.842,305.297
		c-8.907,13.289-25.355,21.567-44.374,20.066c-34.862-2.742-54.724-42.947-34.635-74.56c8.9-13.295,24.566-22.382,43.584-20.885
		C1437.28,232.662,1457.927,273.683,1437.842,305.297z"/>
	<path fill-rule="evenodd" clip-rule="evenodd" d="M1543.18,201.769c-3.867-37.455-35.168-65.32-68.11-69.019
		c-24.8-2.784-52.546,0-77.189,0c-25.164,0-51.642-2.718-77.184,0c-30.937,3.295-48.325,22.684-62.214,46.476
		c-8.77,24.279-5.775,65.302-5.775,98.013c0,27.047-2.293,54.074,0,76.282c3.867,37.448,35.168,65.319,68.108,69.019
		c24.801,2.777,52.551,0,77.195,0c25.166,0,51.637,2.718,77.185,0c31.266-3.334,48.569-24.1,62.536-48.234
		c8.788-24.268,5.448-63.524,5.448-96.256C1543.18,251.001,1545.472,223.977,1543.18,201.769z M1516.847,358.872
		c-10.2,44.703-62.518,39.143-118.836,39.143c-24.932,0-50.438,1.981-71.748,0c-26.632-2.484-46.439-23.016-49.038-48.134
		c-4.747-45.984,2.851-103.208,2.605-154.469c10.199-44.704,61.727-38.14,118.05-38.14c24.925,0,50.438-1.987,71.749,0
		c26.632,2.481,46.434,23.014,49.032,48.128C1523.406,251.39,1516.602,307.607,1516.847,358.872z"/>
</g>
</svg>
