<svg version="1.1" id="Capa_1" xmlns="http://www.w3.org/2000/svg" x="0" y="0" viewBox="0 0 143.2 143.1" xml:space="preserve"><style>.st0,.st1{fill-rule:evenodd;clip-rule:evenodd}.st1,.st2{fill:#fff}.st3{fill:none;stroke:#fff;stroke-width:1.3847;stroke-miterlimit:10}</style><path d="M-720.7 360.4l-40.2.6 1-5.3 12.2-6.9 6.1-123.8-13-5.3 1.2-4.7 32.9-.4 40.3 96.6 41.5-96.4 34.2-.2-1.2 5.1-12.2 5.3 4.7 123.8 14.4 6.9-1 4.7-46.6.6 1-5.3 14.6-6.9-5.5-108.4-40.7 98.8-10 .2-43.1-97.2-3.7 106.7 14.2 6.9-1.1 4.6zM-599.8 157.9l112.1 240.7 11.8-5.6-111.3-239.3zM-447.4 222c-2.1-2.7-4.7-4.8-7.6-6.3-2.9-1.5-6.2-2.3-9.7-2.3-4.5 0-10.6.1-16.1.2-5.5.1-9.5.2-12.1.3h-1.6l-.9 4.4 6.1 2.3.6 53.5-5.9 2.7-1.3 4.7 31.2.2c3.9 0 7.4-.9 10.4-2.7 3-1.8 5.5-4.2 7.5-7.3 2-3 3.5-7.3 4.5-12.7 1-5.2 1.5-10.3 1.5-15 0-4.5-.6-8.7-1.7-12.4-1.2-3.7-2.9-6.9-4.9-9.6zm-5.6 34.3c-.5 4.4-1.3 8.1-2.4 10.7-1 2.5-2.3 5.2-3.9 6.6-.4.2-1.2.4-2.7.5-1.6.1-5.6.2-8.2.2-2.6 0-4.7-.1-6.3-.2-.7 0-1.4-.1-2-.1l.3-53.1c1.1-.1 2.3-.2 3.5-.3 1.6-.1 3.7 0 6.4.3 2.5.2 6.5.6 8 1.1 1.3.8 2.6 2.8 3.6 4.8 1.2 2.2 2.1 4.8 2.8 7.8.7 3 1.1 6.3 1.2 9.7.3 3.4.2 7.5-.3 12zM-397.1 247.4l-1.5 4.2 6.9 2.5.4 20.2c-2.1.4-5 .6-6.9.6-2 0-3.8-.2-5.5-.7-3.6-1-6.6-2.8-8.9-5.2-2.4-2.5-4.1-5.5-5.2-9.1-1.1-3.7-1.7-8.5-1.8-12.5 0-4 .5-8.1 1.6-12 1-3.8 2.6-8 4.6-10.9.7-.5 1.6-1 2.8-1.4 1.4-.4 2.9-.8 4.4-1 1.6-.2 3.3-.3 5.1-.4 1.7 0 3.4.1 4.9.2 1.5.2 2.8.5 4 .9.8.3 2.4.6 2.8.9l2.8 8.6 5.6-.5.4-15.2-1.4-.4c-8-2.4-15.2-3.2-21.3-2.6-6.2.6-10.3 2.5-14.5 5.6-4.2 3.1-7.5 7.3-9.7 12.4-2.2 5-3.3 10.9-3.3 17.3 0 4.5.5 8.6 1.5 12.1s2.4 6.6 4.1 9.1c1.7 2.5 3.7 4.7 6 6.4 2.2 1.7 4.8 3 7.5 3.9 3.1 1.1 6.4 1.7 9.8 1.9 1 0 .8.1 1.8.1 2.2 0 4.2-.1 6.2-.3 2.8-.3 5.4-.8 7.6-1.4 2.2-.6 3.7-1.1 4.7-1.4l1.3-.5v-24.7l4.8-2.2 1.1-4.6-22.7.1z"/><path d="M-377.6 86.1c-50-50-116.4-77.5-187-77.5s-137.1 27.5-187 77.5c-50 50-77.5 116.4-77.5 187s27.5 137.1 77.5 187c50 50 116.4 77.5 187 77.5s137.1-27.5 187-77.5c50-50 77.5-116.4 77.5-187s-27.6-137-77.5-187zm-187.1 438.5c-138.7 0-251.5-112.8-251.5-251.5S-703.3 21.7-564.7 21.7s251.5 112.8 251.5 251.5S-426 524.6-564.7 524.6z"/><circle class="st0" cx="592.5" cy="271.5" r="14.3"/><path class="st1" d="M592.6 261.5h.8c2.8.2 4.7 1.3 6.3 2.8 1.5 1.5 2.6 3.4 2.7 6.3v.8c-.3 3.6-2 6.1-4.4 7.6-1.2.7-2.8 1.3-4.6 1.4-2 .1-3.5-.5-4.9-1.1-1.7.4-3.3.9-5 1.3.5-1.6.9-3.2 1.3-4.8-.7-1.3-1.3-2.8-1.3-4.8 0-1.9.6-3.5 1.4-4.7.7-1.2 1.8-2.3 3-3.1 1.3-1 2.9-1.6 4.7-1.7zm-3.9 16c1 .6 2 1.1 3.4 1.2 1.5.2 2.9-.1 3.9-.6 2.1-.9 3.7-2.6 4.4-4.9.4-1.3.4-2.8.1-4.1-.3-1.2-.9-2.3-1.5-3.1-.7-.9-1.6-1.5-2.6-2.1-1-.5-2.3-.9-3.8-.8-.8 0-1.6.2-2.3.4-1.9.7-3.4 2-4.3 3.6-.6 1.2-1.1 2.6-.9 4.3.1 1.6.7 2.8 1.4 3.9-.3 1-.5 1.9-.8 2.8 1.1-.1 2.1-.3 3-.6z"/><path class="st1" d="M589.7 266.6h.7c.1.1.3.4.3.5.2.4.3.8.5 1.2.1.2.2.5.2.6 0 .3-.2.5-.3.7-.2.2-.4.3-.4.6 0 .2.2.4.3.6.7 1 1.5 1.8 2.6 2.3.2.1.4.2.6.2.2 0 .5-.4.6-.6l.3-.3c.1-.1.2-.3.3-.3.2 0 .5.1.7.2l1.2.6c.2.1.5.2.6.3.1.3-.1 1-.2 1.2-.2.3-.6.6-.9.7-.3.2-.8.3-1.3.3-.6 0-1.2-.2-1.7-.4-1.5-.6-2.7-1.6-3.7-2.7-.6-.7-1.3-1.6-1.6-2.6-.3-1-.1-1.9.4-2.5.1-.3.3-.5.8-.6z"/><path class="st2" d="M72.3 5.1c9 0 17.7 1.8 25.9 5.2 7.9 3.3 15 8.1 21.1 14.2 6.1 6.1 10.9 13.2 14.3 21.1 3.5 8.2 5.2 16.9 5.2 25.9s-1.8 17.7-5.2 25.9c-3.3 7.9-8.1 15-14.3 21.1-6.1 6.1-13.2 10.9-21.1 14.2-8.2 3.5-16.9 5.2-25.9 5.2s-17.7-1.8-25.9-5.2c-7.9-3.3-15-8.1-21.1-14.2-6.1-6.1-10.9-13.2-14.2-21.1-3.5-8.2-5.2-16.9-5.2-25.9s1.8-17.7 5.2-25.9c3.3-7.9 8.1-15 14.2-21.1 6.1-6.1 13.2-10.9 21.1-14.2 8.2-3.5 16.9-5.2 25.9-5.2m0-3.6C33.6 1.5 2.2 32.9 2.2 71.6c0 38.7 31.4 70.1 70.1 70.1 38.7 0 70.1-31.4 70.1-70.1 0-38.7-31.4-70.1-70.1-70.1z"/><path d="M-909 478.4c-1.8 0-2.7-.8-2.7-2.6V305.9c.3-1.7 1.1-2.6 2.7-2.6h55.7l9.1-70.1H-909c-1.8 0-2.7-.9-2.7-2.6v-49.3c0-16.4 14.3-24.6 42.9-24.6h27.2V94.4c-15.8-1.7-33.1-2.6-51.9-2.6h-3.9c-39.6 0-66.8 18.1-81.7 54.5-3.5 11.7-5.2 23.4-5.2 35v49.3c0 1.7-.9 2.6-2.6 2.6h-57.1v70.1h57.1c1.7.2 2.6 1.1 2.6 2.6v169.9c0 1.7-.9 2.6-2.6 2.6h77.9z"/><circle class="st0" cx="578.2" cy="471.8" r="14.3"/><path class="st2" d="M569.5 465.2v13.4h17.4v-13.4h-17.4zm8.7 8L571 466h14.5l-7.3 7.2zm-7.8 4.5v-11.1l7.8 7.8 7.8-7.8v11.1h-15.6z"/><path class="st3" d="M581 471.1l5.6 7.1M575.1 470.8l-5 7.4"/><g><path class="st0" d="M897.9 213.1h3.6c21.3 2.5 33.8 14.8 36.1 36.4v2.8c-.6 8.5-3.1 15.1-7 20.3-2.7-2-5.7-3.7-8.1-5.9 1.4-4 .9-10.4.9-15.7 0-4.4.4-8.8 0-12.4-.6-6.1-5.7-10.7-11.1-11.3-4-.5-8.6 0-12.6 0-4.1 0-8.4-.4-12.6 0-5.1.5-7.9 3.8-10.2 7.7-2.7-1.9-5.5-3.8-8.1-5.8 6.3-8.7 15.2-15 29.1-16.1z"/><path class="st0" d="M919.1 264.2c-.9-.1-1.7-.8-2.5-1.3-2.2-1.5-4.7-3.4-7-5 1.3-2.3 2.3-4.8 1.9-8.3-.7-6.4-6.5-11.1-13.3-10.4-3.8.4-6 2.4-8.3 4.9-3.3-2.1-6.3-4.4-9.5-6.5 1.7-7.3 10.1-6.2 19.3-6.2 4.1 0 8.2-.3 11.7 0 4.3.4 7.6 3.8 8 7.9.8 7.3-.3 16.5-.3 24.9zm-6.8-23c3.8 0 3.5-5.9-.3-5.5-3.7.5-2.7 5.5.3 5.5z"/><path class="st0" d="M906.2 255.4c-4.4-2.9-8.5-6-12.9-8.9 1.5-2.2 4-3.7 7.1-3.4 5.7.5 9.1 7.2 5.8 12.3z"/></g><g><path class="st0" d="M795 345.3h-3.6c-21.3-2.5-33.8-14.8-36.1-36.4v-2.8c.6-8.5 3.1-15.1 7-20.3 2.7 2 5.8 3.4 8.2 5.6-1.4 4-.9 10.7-.9 16 0 4.4-.4 8.8 0 12.4.6 6.1 5.7 10.7 11.1 11.3 4 .5 8.6 0 12.6 0 4.1 0 8.4.4 12.6 0 5.1-.5 7.9-3.9 10.2-7.9 2.7 1.9 5.6 3.9 8.2 5.9-6.5 8.8-15.4 15.1-29.3 16.2z"/><path class="st0" d="M773.9 294c.9.1 1.6 1 2.4 1.5 2.2 1.5 4.8 3.4 7.1 5-1.3 2.3-2.4 4.8-2.1 8.3.7 6.4 6.5 11.1 13.3 10.4 3.8-.4 6.1-2.4 8.4-4.9 3.3 2.1 6.3 4.2 9.5 6.4-1.7 7.3-10.2 6.4-19.4 6.4-4.1 0-8.2.3-11.7 0-4.3-.4-7.6-3.8-8-7.9-.7-7.5.5-16.8.5-25.2z"/><path class="st0" d="M786.8 303.1c4.4 2.9 8.5 6 12.9 8.9-1.5 2.2-4.1 3.5-7.2 3.3-5.7-.5-9-7.1-5.7-12.2z"/></g><g><path class="st1" d="M91.7 48c-5.9.7-4.2 8.7.5 8.7 6 0 5.4-9.4-.5-8.7zM69.8 53.4c-6.1.6-9.6 3.8-13.2 7.8-2 3.7-3.8 7.7-3.3 13.2 1 10.1 10.4 17.6 21.2 16.5 6.1-.6 9.8-3.8 13.4-7.8 2-3.7 3.6-7.6 3.1-13.2-1.1-10.2-10.4-17.6-21.2-16.5zm12.7 25.9c-2.3 3.4-6.6 5.6-11.5 5.2-9-.7-14.2-11.1-9-19.3 2.3-3.4 6.4-5.8 11.3-5.4 9.1.6 14.4 11.3 9.2 19.5z"/><path class="st1" d="M109.8 52.4c-1-9.7-9.1-16.9-17.6-17.9-6.4-.7-13.6 0-20 0-6.5 0-13.4-.7-20 0-8 .9-12.5 5.9-16.1 12-2.3 6.3-1.5 16.9-1.5 25.4 0 7-.6 14 0 19.8 1 9.7 9.1 16.9 17.6 17.9 6.4.7 13.6 0 20 0 6.5 0 13.4.7 20 0 8.1-.9 12.6-6.2 16.2-12.5 2.3-6.3 1.4-16.5 1.4-24.9 0-7 .6-14 0-19.8zM103 93.1c-2.6 11.6-16.2 10.1-30.8 10.1-6.5 0-13.1.5-18.6 0-6.9-.6-12-6-12.7-12.5-1.2-11.9.7-26.7.7-40 2.6-11.6 16-9.9 30.6-9.9 6.5 0 13.1-.5 18.6 0 6.9.6 12 6 12.7 12.5 1.2 12-.6 26.6-.5 39.8z"/></g></svg>