<?xml version="1.0" encoding="utf-8"?>
<!-- Generator: Adobe Illustrator 15.1.0, SVG Export Plug-In . SVG Version: 6.00 Build 0)  -->
<!DOCTYPE svg PUBLIC "-//W3C//DTD SVG 1.1//EN" "http://www.w3.org/Graphics/SVG/1.1/DTD/svg11.dtd">
<svg version="1.1" id="Capa_1" xmlns="http://www.w3.org/2000/svg" xmlns:xlink="http://www.w3.org/1999/xlink" x="0px" y="0px"
	 width="340.16px" height="237px" viewBox="0 0 340.16 237" enable-background="new 0 0 340.16 237" xml:space="preserve">
<path fill="#FFFFFF" d="M37.998,187.018l-34.577,0.508l0.848-4.575l10.508-5.931l5.252-106.602L8.845,65.845l1.018-4.07l28.302-0.34
	l34.743,83.215l35.76-83.043l29.49-0.172l-1.017,4.41l-10.51,4.573l4.068,106.602l12.375,5.931l-0.851,4.067l-40.167,0.508
	l0.848-4.575l12.541-5.931l-4.744-93.383l-35.082,85.08l-8.644,0.168l-37.113-83.72L26.64,177.02l12.204,5.931L37.998,187.018z"/>
<polygon fill="#FFFFFF" points="142.098,12.679 238.653,219.918 248.812,215.14 152.988,9.036 "/>
<path fill="#FFFFFF" d="M273.329,67.869c-1.822-2.303-4.013-4.124-6.508-5.412c-2.526-1.303-5.338-1.964-8.359-1.964
	c-3.855,0-9.157,0.063-13.908,0.186c-4.712,0.125-8.179,0.21-10.399,0.259l-1.366,0.029l-0.778,3.761l5.269,1.947l0.494,46.056
	l-5.105,2.32l-1.115,4.031l26.9,0.16h0.01c3.351,0,6.366-0.774,8.96-2.305c2.562-1.51,4.729-3.621,6.445-6.272
	c1.691-2.618,2.981-6.285,3.832-10.901c0.83-4.5,1.251-8.851,1.251-12.934c0-3.895-0.485-7.484-1.441-10.667
	C276.538,72.944,275.133,70.153,273.329,67.869z M268.529,97.396c-0.4,3.824-1.084,6.933-2.031,9.244
	c-0.869,2.121-1.992,4.438-3.338,5.679c-0.356,0.14-1.052,0.325-2.341,0.417c-1.338,0.095-4.816,0.143-7.036,0.143
	c-2.221,0-4.039-0.048-5.403-0.143c-0.63-0.044-1.192-0.083-1.688-0.116l0.277-45.752c0.981-0.117,2.004-0.191,3.057-0.226
	c1.357-0.045,3.192,0.028,5.468,0.218c2.115,0.179,5.557,0.505,6.927,0.971c1.149,0.693,2.198,2.437,3.119,4.135
	c1.032,1.904,1.851,4.154,2.433,6.686c0.59,2.576,0.937,5.384,1.032,8.346C269.1,89.978,268.94,93.477,268.529,97.396z"/>
<path fill="#FFFFFF" d="M316.653,89.76l-1.317,3.61l5.974,2.165l0.384,17.411c-1.804,0.354-4.346,0.533-5.92,0.533
	c-1.693,0-3.28-0.208-4.713-0.616c-3.077-0.876-5.653-2.38-7.656-4.473c-2.029-2.118-3.542-4.75-4.498-7.819
	c-0.983-3.158-1.493-7.302-1.516-10.75c-0.024-3.461,0.429-6.949,1.349-10.368c0.886-3.29,2.213-6.882,3.948-9.426
	c0.605-0.45,1.412-0.841,2.396-1.164c1.181-0.384,2.465-0.673,3.817-0.857c1.389-0.188,2.854-0.295,4.355-0.318
	c1.483-0.022,2.902,0.047,4.209,0.209c1.27,0.16,2.421,0.409,3.421,0.742c0.662,0.22,2.027,0.485,2.386,0.776l2.428,7.444
	l4.792-0.446l0.373-13.118l-1.237-0.364c-6.896-2.028-13.06-2.787-18.343-2.244c-5.362,0.546-8.841,2.172-12.479,4.832
	c-3.638,2.664-6.438,6.248-8.327,10.653c-1.858,4.339-2.802,9.345-2.802,14.88c0,3.894,0.433,7.388,1.286,10.384
	c0.858,3.02,2.043,5.662,3.518,7.848c1.48,2.194,3.216,4.048,5.157,5.511c1.931,1.457,4.094,2.6,6.425,3.395
	c2.708,0.937,5.546,1.478,8.435,1.607c0.877,0.038,0.666,0.06,1.507,0.06c1.858,0,3.656-0.099,5.342-0.291
	c2.44-0.279,4.643-0.682,6.543-1.194c1.894-0.512,3.227-0.916,4.077-1.236l1.086-0.407v-21.24l4.169-1.908l0.942-3.998
	L316.653,89.76z"/>
</svg>
