<?xml version="1.0" encoding="utf-8"?>
<!-- Generator: Adobe Illustrator 15.1.0, SVG Export Plug-In . SVG Version: 6.00 Build 0)  -->
<!DOCTYPE svg PUBLIC "-//W3C//DTD SVG 1.1//EN" "http://www.w3.org/Graphics/SVG/1.1/DTD/svg11.dtd">
<svg version="1.1" id="Capa_1" xmlns="http://www.w3.org/2000/svg" xmlns:xlink="http://www.w3.org/1999/xlink" x="0px" y="0px"
	 width="549px" height="550px" viewBox="0 0 549 550" enable-background="new 0 0 549 550" xml:space="preserve">
<path fill="#FFFFFF" d="M118.002,363.912l-40.15,0.59l0.984-5.313l12.202-6.887l6.099-123.785l-12.986-5.31l1.182-4.726
	l32.864-0.395l40.343,96.628l41.524-96.429l34.243-0.199l-1.181,5.12l-12.204,5.31l4.724,123.785l14.369,6.887l-0.988,4.723
	l-46.641,0.59l0.984-5.313l14.563-6.887l-5.509-108.436l-40.737,98.794l-10.037,0.194l-43.095-97.215l-3.742,106.662l14.171,6.887
	L118.002,363.912z"/>
<polygon fill="#FFFFFF" points="238.882,161.472 351.002,402.116 362.797,396.568 251.527,157.242 "/>
<path fill="#FFFFFF" d="M391.267,225.558c-2.116-2.674-4.659-4.788-7.558-6.284c-2.934-1.514-6.197-2.28-9.706-2.28
	c-4.478,0-10.634,0.072-16.149,0.216c-5.473,0.145-9.498,0.244-12.076,0.301l-1.587,0.034l-0.903,4.367l6.117,2.262l0.574,53.479
	l-5.929,2.693l-1.295,4.682l31.236,0.187h0.012c3.891,0,7.392-0.899,10.404-2.677c2.974-1.753,5.491-4.204,7.483-7.283
	c1.965-3.041,3.463-7.299,4.45-12.658c0.964-5.225,1.452-10.277,1.452-15.019c0-4.522-0.563-8.689-1.674-12.386
	C394.993,231.451,393.36,228.211,391.267,225.558z M385.693,259.845c-0.466,4.44-1.259,8.051-2.359,10.733
	c-1.009,2.463-2.313,5.153-3.875,6.595c-0.414,0.161-1.222,0.378-2.719,0.483c-1.554,0.11-5.593,0.166-8.17,0.166
	c-2.58,0-4.69-0.056-6.274-0.166c-0.731-0.05-1.386-0.096-1.962-0.135l0.322-53.127c1.14-0.135,2.327-0.222,3.55-0.262
	c1.577-0.052,3.706,0.033,6.35,0.253c2.456,0.208,6.452,0.587,8.043,1.128c1.334,0.805,2.553,2.829,3.622,4.801
	c1.198,2.211,2.148,4.823,2.824,7.764c0.686,2.99,1.088,6.252,1.199,9.691C386.355,251.23,386.17,255.294,385.693,259.845z"/>
<path fill="#FFFFFF" d="M441.574,250.979l-1.53,4.192l6.937,2.514l0.446,20.218c-2.095,0.41-5.046,0.618-6.875,0.618
	c-1.966,0-3.809-0.241-5.472-0.716c-3.573-1.017-6.564-2.763-8.891-5.192c-2.357-2.46-4.113-5.517-5.223-9.08
	c-1.143-3.666-1.734-8.479-1.761-12.483c-0.028-4.019,0.497-8.068,1.566-12.038c1.028-3.82,2.569-7.991,4.585-10.946
	c0.703-0.521,1.639-0.977,2.783-1.352c1.37-0.446,2.861-0.781,4.433-0.996c1.612-0.218,3.313-0.343,5.058-0.369
	c1.722-0.026,3.369,0.055,4.887,0.242c1.474,0.186,2.811,0.476,3.973,0.862c0.768,0.255,2.354,0.563,2.77,0.901l2.818,8.645
	l5.564-0.518l0.434-15.232l-1.437-0.424c-8.007-2.354-15.165-3.236-21.3-2.605c-6.226,0.635-10.266,2.522-14.489,5.611
	c-4.224,3.094-7.476,7.256-9.669,12.371c-2.158,5.038-3.254,10.851-3.254,17.278c0,4.521,0.503,8.579,1.493,12.058
	c0.997,3.507,2.372,6.574,4.085,9.113c1.72,2.549,3.734,4.701,5.988,6.398c2.242,1.692,4.754,3.019,7.461,3.942
	c3.145,1.087,6.439,1.716,9.794,1.866c1.018,0.045,0.773,0.069,1.75,0.069c2.157,0,4.245-0.114,6.202-0.337
	c2.834-0.325,5.391-0.792,7.598-1.388c2.199-0.595,3.747-1.063,4.734-1.436l1.261-0.474V257.63l4.842-2.215l1.093-4.643
	L441.574,250.979z"/>
<path fill="#FFFFFF" d="M461.062,89.663c-49.954-49.955-116.373-77.467-187.021-77.467S136.975,39.708,87.021,89.663
	C37.065,139.617,9.554,206.036,9.554,276.684S37.065,413.75,87.021,463.704c49.954,49.955,116.373,77.467,187.021,77.467
	s137.066-27.512,187.021-77.467c49.955-49.954,77.467-116.373,77.467-187.021S511.017,139.617,461.062,89.663z M274.041,528.171
	c-138.671,0-251.487-112.816-251.487-251.487S135.37,25.196,274.041,25.196s251.487,112.816,251.487,251.487
	S412.712,528.171,274.041,528.171z"/>
</svg>
